# xmcd
#
# Track frame offsets:
#	150
#	15361
#	34896
#	46159
#	57120
#	71878
#	90392
#	108109
#	125867
#	145759
#	164211
#	182933
#	198297
#	216958
#	230770
#	251559
#	267714
#	283952
#	300823
#	316503
#	333029
#
# Disc length: 4724 seconds
#
# Revision: 0
# Processed by: cddbd v1.5.2PL0 Copyright (c) Steve Scherf et al.
# Submitted via: EZCDAudioConverter 1.0.8.1
#
DISCID=32127215
DTITLE=Kauko Röyhkä - Olen Messias - Valitut Palat 1980-2012 cd3
DYEAR=2012
DGENRE=
TTITLE0=Soita se taas, Rainer
TTITLE1=Kevät
TTITLE2=Tyttöjen ystävä
TTITLE3=Saanut
TTITLE4=Rauno rokkaa
TTITLE5=Helena
TTITLE6=Kultainen aasi
TTITLE7=Noita
TTITLE8=Jumalan lahja
TTITLE9=Observatorion mäellä
TTITLE10=Jos
TTITLE11=Mun pitää siivota mun akti
TTITLE12=Kanerva
TTITLE13=Tuon sulle Alfredo Garcian pään
TTITLE14=Sinä olet tähti
TTITLE15=Nainen surupuvussa
TTITLE16=Kyl sä muuten oot jees
TTITLE17=Hipit vanhemmat
TTITLE18=Sinä teit sen taas, Marjaana
TTITLE19=Lapinpoika
TTITLE20=Hän elää yksin
EXTD=
EXTT0=
EXTT1=
EXTT2=
EXTT3=
EXTT4=
EXTT5=
EXTT6=
EXTT7=
EXTT8=
EXTT9=
EXTT10=
EXTT11=
EXTT12=
EXTT13=
EXTT14=
EXTT15=
EXTT16=
EXTT17=
EXTT18=
EXTT19=
EXTT20=
PLAYORDER=
